<?xml version="1.0" standalone="no"?>
<!DOCTYPE svg PUBLIC "-//W3C//DTD SVG 20010904//EN"
 "http://www.w3.org/TR/2001/REC-SVG-20010904/DTD/svg10.dtd">
<svg version="1.0" xmlns="http://www.w3.org/2000/svg"
 width="512.000000pt" height="512.000000pt" viewBox="0 0 512.000000 512.000000"
 preserveAspectRatio="xMidYMid meet">

<g transform="translate(0.000000,512.000000) scale(0.100000,-0.100000)"
fill="#000000" stroke="none">
<path d="M1374 5110 c-53 -21 -54 -30 -54 -368 0 -350 0 -352 69 -373 31 -9
43 -8 69 5 57 30 62 51 62 291 0 118 1 215 3 215 13 0 185 -63 241 -89 235
-107 450 -327 556 -569 35 -78 87 -249 78 -257 -1 -1 -127 71 -278 161 -151
91 -286 167 -299 171 -36 9 -90 -22 -107 -62 -12 -29 -14 -172 -14 -931 0
-997 3 -953 -68 -1089 -70 -134 -217 -250 -368 -290 -76 -20 -222 -20 -298 0
-202 53 -368 221 -421 425 -23 88 -17 251 13 334 62 172 200 309 370 368 56
19 88 23 187 23 129 0 162 -9 245 -71 43 -31 91 -27 129 11 l26 25 0 281 0
281 -34 30 c-29 26 -39 30 -75 25 -27 -4 -49 -15 -63 -32 -22 -25 -23 -34 -23
-197 l0 -170 -27 7 c-16 3 -85 9 -154 12 -107 4 -138 2 -209 -16 -363 -92
-602 -399 -602 -771 1 -230 80 -411 251 -573 169 -160 404 -237 627 -207 194
25 329 93 469 234 103 103 166 211 206 351 23 80 23 82 27 898 2 628 6 818 15
814 7 -3 138 -80 291 -171 154 -91 290 -166 303 -166 38 0 79 27 93 60 17 40
7 188 -21 319 -85 397 -366 750 -733 922 -92 43 -408 149 -441 148 -11 0 -30
-4 -41 -9z"/>
<path d="M1349 4081 c-54 -54 -32 -140 40 -162 76 -23 144 47 122 122 -14 47
-44 69 -94 69 -29 0 -46 -7 -68 -29z"/>
<path d="M3485 3701 c-643 -130 -1181 -243 -1193 -250 -53 -28 -52 -12 -52
-959 l0 -879 -67 15 c-84 17 -271 11 -358 -13 -90 -24 -232 -97 -303 -155
-123 -101 -223 -249 -272 -405 -34 -107 -39 -301 -11 -420 146 -617 905 -843
1364 -407 108 103 176 216 224 369 l28 88 3 880 3 880 127 27 c70 15 359 77
642 138 283 60 527 113 543 116 l27 6 0 -232 c0 -223 -1 -231 -19 -225 -79 25
-217 31 -321 15 -504 -80 -814 -591 -651 -1074 86 -256 306 -461 571 -533 101
-27 320 -25 423 5 296 85 514 315 583 617 18 76 19 148 19 1328 l0 1249 -33
29 c-24 22 -42 29 -70 28 -20 0 -563 -107 -1207 -238z m1094 -2346 c-6 -33
-26 -93 -45 -133 -181 -395 -692 -483 -1000 -174 -111 112 -174 265 -174 425
0 111 14 174 59 272 68 147 199 262 361 319 73 25 100 30 190 30 120 0 192
-18 244 -64 40 -36 78 -46 116 -30 61 25 60 18 60 480 l0 421 -24 24 c-13 13
-36 27 -49 30 -23 6 -1512 -306 -1604 -336 -66 -21 -62 38 -65 -980 l-3 -924
-27 -81 c-151 -443 -695 -576 -1024 -249 -39 39 -87 99 -107 136 -99 177 -101
409 -5 592 48 93 175 215 271 261 103 50 200 69 307 63 97 -6 163 -27 200 -62
41 -39 81 -49 124 -31 69 29 66 -20 66 1013 l0 928 808 163 c444 89 924 186
1067 216 l260 52 3 -1150 c2 -828 0 -1168 -9 -1211z"/>
</g>
</svg>
